<svg id="Layer_1" data-name="Layer 1" xmlns="http://www.w3.org/2000/svg" viewBox="0 0 1080 176"><defs><style>.cls-1{fill:#fff;}</style></defs><polygon class="cls-1" points="1060.89 2.33 1060.89 147.01 1060.47 147.01 966.4 2.33 944.96 2.33 944.96 83.78 106.88 83.78 106.88 69.31 91.37 69.31 91.37 83.78 89.81 83.78 89.81 83.71 20.17 83.71 20.17 16.99 115.67 16.99 115.67 0 0 0 0 171.2 20.17 171.2 20.17 100.7 73.87 100.7 73.87 100.72 91.37 100.72 91.37 112.74 106.88 112.74 106.88 100.72 944.96 100.72 944.96 175.68 964.07 175.68 964.07 46.49 964.49 32.26 1057.92 175.68 1080 175.68 1080 2.33 1060.89 2.33"/></svg>